# xmcd
#
# Track frame offsets:
#	150
#	13177
#	36468
#	59572
#	83755
#	107121
#	125553
#	153752
#	179938
#	204538
#	229223
#
# Disc length: 3350 seconds
#
# Revision: 0
# Processed by: cddbd v1.5.2PL0 Copyright (c) Steve Scherf et al.
# Submitted via: EasyCDDAExtractor 16.0.6.1
#
DISCID=9d0d140b
DTITLE=HaDo Bich Phuong - TINH
DYEAR=2016
DGENRE=
TTITLE0=LOI GIOI THIEU
TTITLE1=Tuan Ngoc - 01 Tinh Em La Song Vo
TTITLE2=Ngoc Anh-Huy MC - 02 Goi Mua
TTITLE3=5 Dong Ke - 03 Bien Thu
TTITLE4=Bao Yen - 04 Lam Sao Het Yeu Nguoi
TTITLE5=Thanh Ha - 05 Khoang Trong Nao Cho Toi
TTITLE6=Quynh Lan - 06 Thang Gieng Tinh Em
TTITLE7=5 Dong Ke - 07 Giua Dem Buon
TTITLE8=Bao Yen - 08 Trai Tim Toi Mua Thu
TTITLE9=Duy Quang - 09 Tinh Si Cho Em
TTITLE10=Bich Phuong - 10 Xuan Nao Vo Tan
EXTD=
EXTT0=
EXTT1=
EXTT2=
EXTT3=
EXTT4=
EXTT5=
EXTT6=
EXTT7=
EXTT8=
EXTT9=
EXTT10=
PLAYORDER=
